<?xml version="1.0" encoding="UTF-8" standalone="no"?>
<!DOCTYPE svg PUBLIC "-//W3C//DTD SVG 1.1//EN" "http://www.w3.org/Graphics/SVG/1.1/DTD/svg11.dtd">
<svg xmlns="http://www.w3.org/2000/svg" version="1.1" viewBox="0.00 0.00 400.00 400.00">
<g stroke-width="2.00" fill="none" stroke-linecap="butt">
<path stroke="#9cd9b9" vector-effect="non-scaling-stroke" d="
  M 101.64 108.31
  Q 103.01 108.31 104.16 109.59
  Q 104.77 110.26 104.77 109.36
  L 104.77 108.16
  A 0.51 0.50 -85.6 0 1 105.35 107.66
  Q 108.22 108.09 110.44 107.01
  A 0.56 0.55 42.4 0 0 110.39 105.99
  Q 108.39 105.23 107.28 105.11
  Q 105.69 104.95 106.96 103.97
  Q 109.89 101.73 111.36 97.88
  A 0.61 0.60 1.7 0 0 110.61 97.09
  Q 106.97 98.23 104.59 100.75
  Q 103.51 101.91 103.65 100.33
  Q 103.95 96.89 103.06 93.74
  Q 102.46 91.61 101.71 91.61
  Q 100.96 91.60 100.35 93.73
  Q 99.42 96.87 99.69 100.31
  Q 99.82 101.89 98.75 100.72
  Q 96.39 98.18 92.76 97.01
  A 0.61 0.60 -1.2 0 0 92.01 97.80
  Q 93.44 101.66 96.35 103.92
  Q 97.61 104.91 96.02 105.06
  Q 94.91 105.17 92.90 105.91
  A 0.56 0.55 -41.9 0 0 92.85 106.93
  Q 95.06 108.03 97.93 107.63
  A 0.51 0.50 86.1 0 1 98.51 108.13
  L 98.50 109.33
  Q 98.49 110.23 99.10 109.57
  Q 100.26 108.30 101.64 108.31"
/>
<path stroke="#9cd9b9" vector-effect="non-scaling-stroke" d="
  M 101.7269 110.7350
  A 0.83 0.44 79.1 0 0 102.0021 109.8368
  A 0.83 0.44 79.1 0 0 101.4131 109.1050
  A 0.83 0.44 79.1 0 0 101.1379 110.0032
  A 0.83 0.44 79.1 0 0 101.7269 110.7350"
/>
<path stroke="#9cd9b9" vector-effect="non-scaling-stroke" d="
  M 149.76 179.47
  L 165.25 229.77
  Q 165.38 230.22 165.85 230.20
  L 172.25 229.90
  Q 173.02 229.87 172.94 229.10
  Q 172.57 225.86 171.74 223.31
  Q 170.00 218.02 149.50 151.70
  Q 149.15 150.55 148.79 151.70
  L 127.04 222.82
  A 1.09 1.08 8.2 0 1 126.00 223.59
  L 113.50 223.59
  A 0.66 0.66 0.0 0 1 112.87 222.73
  L 141.20 135.79
  A 1.05 1.04 8.7 0 1 142.20 135.06
  L 155.89 135.06
  A 1.06 1.06 0.0 0 1 156.90 135.79
  L 187.51 230.66
  A 1.25 1.23 80.9 0 0 188.69 231.53
  L 209.45 231.53
  A 1.10 1.09 -80.1 0 0 210.48 230.80
  L 227.63 182.26
  Q 228.07 181.01 228.50 182.27
  L 245.01 230.90
  Q 245.23 231.54 245.90 231.54
  L 271.70 231.54
  A 1.22 1.21 -80.6 0 0 272.85 230.71
  L 307.67 127.45
  A 0.27 0.27 0.0 0 0 307.41 127.09
  L 273.58 127.09
  Q 272.95 127.09 272.77 127.69
  L 259.58 172.97
  Q 259.23 174.17 258.85 172.98
  L 244.22 127.65
  A 0.81 0.81 0.0 0 0 243.45 127.09
  L 213.30 127.09
  A 1.03 1.03 0.0 0 0 212.31 127.83
  L 199.52 171.75
  A 0.31 0.31 0.0 0 1 198.98 171.86
  Q 198.70 171.53 198.51 170.99
  Q 194.17 158.49 184.56 130.90
  Q 184.33 130.22 184.22 128.45
  Q 184.17 127.58 183.31 127.62
  L 176.98 127.91
  Q 176.12 127.95 176.17 128.81
  Q 176.36 131.61 177.07 133.68
  Q 180.32 143.11 199.28 197.74
  Q 199.81 199.27 200.27 197.71
  L 218.39 135.50
  A 0.61 0.59 -81.4 0 1 218.96 135.07
  L 237.46 135.07
  A 0.89 0.89 0.0 0 1 238.31 135.69
  L 259.40 201.04
  Q 259.58 201.60 259.74 201.03
  L 278.87 135.36
  A 0.43 0.42 8.2 0 1 279.28 135.06
  L 295.80 135.06
  Q 296.64 135.06 296.37 135.85
  L 266.90 223.26
  A 0.48 0.47 9.4 0 1 266.45 223.58
  L 252.21 223.58
  Q 250.98 223.58 250.58 222.41
  L 228.64 157.81
  Q 228.22 156.57 227.78 157.81
  L 204.83 222.77
  A 1.24 1.22 9.7 0 1 203.67 223.58
  L 194.43 223.58
  A 1.10 1.08 -8.7 0 1 193.39 222.83
  L 162.66 127.60
  A 0.75 0.75 0.0 0 0 161.95 127.09
  L 136.37 127.09
  A 1.05 1.04 9.3 0 0 135.38 127.80
  L 101.90 230.60
  Q 101.59 231.55 102.59 231.55
  L 132.04 231.55
  Q 132.75 231.55 132.96 230.86
  L 148.68 179.47
  Q 149.22 177.71 149.76 179.47"
/>
<path stroke="#9cd9b9" vector-effect="non-scaling-stroke" d="
  M 166.64 285.53
  L 166.86 286.02
  Q 167.08 286.54 167.65 286.54
  L 172.73 286.54
  A 0.78 0.77 -83.4 0 0 173.48 285.94
  L 179.92 258.13
  Q 180.08 257.43 179.36 257.43
  L 173.92 257.43
  Q 173.25 257.43 173.09 258.09
  L 171.38 265.48
  A 0.70 0.70 0.0 0 1 170.43 265.97
  Q 163.77 263.26 158.41 267.86
  Q 153.61 271.97 153.35 279.45
  C 153.17 284.86 156.91 288.20 162.36 286.84
  Q 163.41 286.58 165.95 285.28
  Q 166.43 285.03 166.64 285.53"
/>
<path stroke="#9cd9b9" vector-effect="non-scaling-stroke" d="
  M 291.00 285.54
  L 291.22 286.03
  Q 291.44 286.56 292.01 286.56
  L 297.09 286.55
  A 0.78 0.77 -83.4 0 0 297.84 285.95
  L 304.28 258.11
  Q 304.44 257.41 303.72 257.41
  L 298.27 257.41
  Q 297.60 257.41 297.44 258.08
  L 295.74 265.47
  A 0.70 0.70 0.0 0 1 294.78 265.96
  Q 288.12 263.25 282.75 267.86
  Q 277.95 271.98 277.69 279.46
  C 277.51 284.88 281.26 288.22 286.71 286.86
  Q 287.77 286.60 290.31 285.29
  Q 290.79 285.04 291.00 285.54"
/>
<path stroke="#9cd9b9" vector-effect="non-scaling-stroke" d="
  M 97.57 272.95
  Q 97.15 274.75 96.42 273.05
  L 90.39 259.15
  A 0.79 0.77 77.6 0 0 89.68 258.68
  L 82.60 258.68
  Q 82.11 258.68 82.00 259.15
  L 75.79 285.99
  Q 75.66 286.56 76.24 286.56
  L 81.58 286.56
  Q 82.29 286.56 82.45 285.86
  L 86.42 268.73
  A 0.46 0.46 0.0 0 1 87.20 268.52
  Q 87.36 268.69 87.50 269.01
  Q 88.33 270.94 94.54 285.74
  A 1.30 1.29 -11.1 0 0 95.74 286.54
  L 100.21 286.54
  A 1.08 1.08 0.0 0 0 101.26 285.70
  L 107.38 259.29
  A 0.50 0.50 0.0 0 0 106.89 258.68
  L 101.59 258.68
  A 0.90 0.90 0.0 0 0 100.71 259.38
  L 97.57 272.95"
/>
<path stroke="#9cd9b9" vector-effect="non-scaling-stroke" d="
  M 226.99 258.68
  A 0.35 0.35 0.0 0 0 226.67 258.89
  L 218.91 276.40
  A 0.35 0.35 0.0 0 1 218.24 276.28
  L 217.45 259.02
  A 0.35 0.35 0.0 0 0 217.10 258.69
  L 210.43 258.69
  A 0.35 0.35 0.0 0 0 210.11 258.89
  L 201.59 276.47
  A 0.35 0.35 0.0 0 1 200.93 276.32
  L 200.93 259.03
  A 0.35 0.35 0.0 0 0 200.58 258.68
  L 193.73 258.68
  A 0.35 0.35 0.0 0 0 193.38 259.05
  L 194.62 286.33
  A 0.35 0.35 0.0 0 0 194.99 286.66
  L 202.60 286.31
  A 0.35 0.35 0.0 0 0 202.90 286.11
  L 211.20 268.99
  A 0.35 0.35 0.0 0 1 211.86 269.13
  L 212.65 286.36
  A 0.35 0.35 0.0 0 0 213.02 286.69
  L 220.51 286.35
  A 0.35 0.35 0.0 0 0 220.81 286.15
  L 233.89 259.18
  A 0.35 0.35 0.0 0 0 233.57 258.68
  L 226.99 258.68"
/>
<path stroke="#9cd9b9" vector-effect="non-scaling-stroke" d="
  M 310.32 266.18
  Q 312.86 266.63 313.62 263.37
  Q 314.01 261.66 314.02 260.16
  A 0.38 0.38 0.0 0 0 313.41 259.86
  Q 312.95 260.21 312.92 260.90
  Q 312.65 265.73 310.47 265.34
  Q 308.29 264.96 309.70 260.33
  Q 309.90 259.67 309.59 259.18
  A 0.38 0.38 0.0 0 0 308.91 259.26
  Q 308.41 260.67 308.19 262.41
  Q 307.78 265.74 310.32 266.18"
/>
<path stroke="#9cd9b9" vector-effect="non-scaling-stroke" d="
  M 113.23 279.18
  Q 112.42 277.32 114.44 277.31
  L 127.81 277.30
  Q 128.51 277.29 128.77 276.66
  C 130.62 272.08 129.61 266.68 124.11 265.42
  C 116.32 263.62 108.24 267.05 106.74 275.53
  C 104.63 287.55 117.03 288.54 125.03 285.92
  Q 126.41 285.47 126.74 284.05
  L 127.43 281.03
  Q 127.80 279.41 126.37 280.25
  Q 121.39 283.18 116.49 282.11
  A 4.40 4.39 84.2 0 1 113.40 279.58
  L 113.23 279.18"
/>
<path stroke="#9cd9b9" vector-effect="non-scaling-stroke" d="
  M 136.76 279.17
  Q 135.95 277.30 137.98 277.30
  L 151.37 277.30
  Q 152.07 277.30 152.33 276.66
  C 154.19 272.08 153.18 266.67 147.68 265.40
  C 139.88 263.59 131.78 267.01 130.27 275.50
  C 128.14 287.54 140.55 288.55 148.57 285.93
  Q 149.95 285.48 150.28 284.06
  L 150.98 281.04
  Q 151.35 279.42 149.92 280.26
  Q 144.93 283.18 140.02 282.11
  A 4.41 4.40 84.3 0 1 136.93 279.57
  L 136.76 279.17"
/>
<path stroke="#9cd9b9" vector-effect="non-scaling-stroke" d="
  M 237.58 279.22
  Q 236.76 277.36 238.79 277.35
  L 252.15 277.25
  Q 252.85 277.25 253.10 276.61
  C 254.93 272.03 253.88 266.63 248.38 265.40
  C 240.59 263.65 232.53 267.12 231.08 275.60
  C 229.04 287.63 241.43 288.56 249.41 285.89
  Q 250.79 285.43 251.11 284.01
  L 251.79 280.99
  Q 252.14 279.37 250.72 280.22
  Q 245.76 283.17 240.85 282.13
  A 4.40 4.39 83.9 0 1 237.75 279.62
  L 237.58 279.22"
/>
<path stroke="#9cd9b9" vector-effect="non-scaling-stroke" d="
  M 261.09 279.14
  Q 260.29 277.27 262.31 277.28
  L 275.67 277.35
  Q 276.36 277.35 276.63 276.71
  C 278.50 272.16 277.52 266.76 272.04 265.46
  C 264.27 263.62 256.18 266.99 254.63 275.45
  C 252.45 287.45 264.82 288.51 272.83 285.94
  Q 274.21 285.50 274.55 284.08
  L 275.26 281.08
  Q 275.64 279.46 274.21 280.29
  Q 269.22 283.18 264.32 282.09
  A 4.40 4.38 84.6 0 1 261.26 279.54
  L 261.09 279.14"
/>
<path stroke="#9cd9b9" vector-effect="non-scaling-stroke" d="
  M 308.62 270.84
  Q 309.80 270.76 311.27 271.58
  Q 311.56 271.75 311.68 271.42
  L 311.81 271.04
  Q 311.89 270.82 311.70 270.68
  Q 309.96 269.50 307.76 270.13
  A 1.62 1.62 0.0 0 0 307.07 272.84
  C 307.85 273.60 309.25 273.63 310.04 274.51
  Q 310.33 274.84 310.26 275.22
  Q 310.16 275.74 309.62 275.81
  Q 308.01 276.00 306.58 274.85
  Q 306.22 274.56 306.07 274.99
  L 305.94 275.35
  Q 305.85 275.61 306.07 275.77
  Q 307.89 277.15 310.03 276.54
  Q 311.45 276.14 311.47 274.78
  A 1.35 1.34 -80.8 0 0 310.53 273.47
  Q 309.14 273.02 308.21 272.44
  Q 307.65 272.09 307.82 271.49
  A 0.91 0.89 -83.4 0 1 308.62 270.84"
/>
<path stroke="#9cd9b9" vector-effect="non-scaling-stroke" d="
  M 307.20 285.05
  Q 306.99 284.88 306.81 284.91
  A 0.13 0.12 -38.2 0 0 306.78 285.15
  Q 308.33 285.78 308.93 287.34
  Q 309.00 287.51 309.12 287.63
  Q 309.28 287.79 309.52 287.76
  Q 309.83 287.72 309.76 287.42
  L 308.55 281.36
  A 0.94 0.94 0.0 0 0 306.82 281.06
  L 304.19 285.43
  Q 302.60 288.08 305.08 286.10
  Q 305.11 286.08 305.76 285.34
  A 1.73 1.67 -20.3 0 0 306.17 284.49
  Q 306.41 283.21 307.31 282.45
  Q 307.85 282.00 307.97 282.68
  Q 308.25 284.29 307.46 285.04
  Q 307.33 285.17 307.20 285.05"
/>
<path stroke="#9cd9b9" vector-effect="non-scaling-stroke" d="
  M 167.90 280.27
  L 170.04 271.03
  A 0.86 0.86 0.0 0 0 169.29 269.99
  Q 161.52 269.15 160.78 277.04
  Q 160.52 279.87 161.02 280.78
  A 1.68 0.86 73.0 0 0 161.71 281.49
  Q 164.57 282.67 167.41 280.94
  A 1.05 1.05 0.0 0 0 167.90 280.27"
/>
<path stroke="#9cd9b9" vector-effect="non-scaling-stroke" d="
  M 292.24 280.26
  L 294.40 271.03
  A 0.86 0.86 0.0 0 0 293.66 269.99
  Q 285.89 269.13 285.13 277.02
  Q 284.87 279.84 285.36 280.75
  A 1.68 0.86 73.1 0 0 286.05 281.47
  Q 288.91 282.65 291.75 280.93
  A 1.05 1.04 -8.8 0 0 292.24 280.26"
/>
<path stroke="#9cd9b9" vector-effect="non-scaling-stroke" d="
  M 114.51 273.53
  L 123.14 273.26
  A 0.25 0.25 0.0 0 0 123.39 273.01
  L 123.38 272.89
  A 4.13 3.89 -1.8 0 0 119.13 269.13
  L 118.25 269.15
  A 4.13 3.89 -1.8 0 0 114.25 273.17
  L 114.25 273.29
  A 0.25 0.25 0.0 0 0 114.51 273.53"
/>
<path stroke="#9cd9b9" vector-effect="non-scaling-stroke" d="
  M 137.97 273.44
  L 146.57 273.35
  A 0.23 0.23 0.0 0 0 146.80 273.12
  L 146.80 272.99
  A 4.22 3.90 -0.6 0 0 142.54 269.14
  L 141.92 269.14
  A 4.22 3.90 -0.6 0 0 137.74 273.09
  L 137.74 273.22
  A 0.23 0.23 0.0 0 0 137.97 273.44"
/>
<path stroke="#9cd9b9" vector-effect="non-scaling-stroke" d="
  M 238.67 273.53
  L 247.59 273.31
  A 0.16 0.16 0.0 0 0 247.75 273.15
  L 247.75 273.10
  A 4.12 4.05 -1.4 0 0 243.53 269.15
  L 242.53 269.17
  A 4.12 4.05 -1.4 0 0 238.51 273.32
  L 238.51 273.37
  A 0.16 0.16 0.0 0 0 238.67 273.53"
/>
<path stroke="#9cd9b9" vector-effect="non-scaling-stroke" d="
  M 262.34 273.40
  L 270.92 273.30
  A 0.22 0.22 0.0 0 0 271.13 273.07
  L 271.13 272.94
  A 4.37 3.85 -0.7 0 0 266.71 269.15
  L 266.43 269.15
  A 4.37 3.85 -0.7 0 0 262.11 273.05
  L 262.11 273.18
  A 0.22 0.22 0.0 0 0 262.34 273.40"
/>
</g>
<path fill="#38b372" d="
  M 400.00 0.00
  L 400.00 400.00
  L 0.00 400.00
  L 0.00 0.00
  L 400.00 0.00
  Z
  M 101.64 108.31
  Q 103.01 108.31 104.16 109.59
  Q 104.77 110.26 104.77 109.36
  L 104.77 108.16
  A 0.51 0.50 -85.6 0 1 105.35 107.66
  Q 108.22 108.09 110.44 107.01
  A 0.56 0.55 42.4 0 0 110.39 105.99
  Q 108.39 105.23 107.28 105.11
  Q 105.69 104.95 106.96 103.97
  Q 109.89 101.73 111.36 97.88
  A 0.61 0.60 1.7 0 0 110.61 97.09
  Q 106.97 98.23 104.59 100.75
  Q 103.51 101.91 103.65 100.33
  Q 103.95 96.89 103.06 93.74
  Q 102.46 91.61 101.71 91.61
  Q 100.96 91.60 100.35 93.73
  Q 99.42 96.87 99.69 100.31
  Q 99.82 101.89 98.75 100.72
  Q 96.39 98.18 92.76 97.01
  A 0.61 0.60 -1.2 0 0 92.01 97.80
  Q 93.44 101.66 96.35 103.92
  Q 97.61 104.91 96.02 105.06
  Q 94.91 105.17 92.90 105.91
  A 0.56 0.55 -41.9 0 0 92.85 106.93
  Q 95.06 108.03 97.93 107.63
  A 0.51 0.50 86.1 0 1 98.51 108.13
  L 98.50 109.33
  Q 98.49 110.23 99.10 109.57
  Q 100.26 108.30 101.64 108.31
  Z
  M 101.7269 110.7350
  A 0.83 0.44 79.1 0 0 102.0021 109.8368
  A 0.83 0.44 79.1 0 0 101.4131 109.1050
  A 0.83 0.44 79.1 0 0 101.1379 110.0032
  A 0.83 0.44 79.1 0 0 101.7269 110.7350
  Z
  M 149.76 179.47
  L 165.25 229.77
  Q 165.38 230.22 165.85 230.20
  L 172.25 229.90
  Q 173.02 229.87 172.94 229.10
  Q 172.57 225.86 171.74 223.31
  Q 170.00 218.02 149.50 151.70
  Q 149.15 150.55 148.79 151.70
  L 127.04 222.82
  A 1.09 1.08 8.2 0 1 126.00 223.59
  L 113.50 223.59
  A 0.66 0.66 0.0 0 1 112.87 222.73
  L 141.20 135.79
  A 1.05 1.04 8.7 0 1 142.20 135.06
  L 155.89 135.06
  A 1.06 1.06 0.0 0 1 156.90 135.79
  L 187.51 230.66
  A 1.25 1.23 80.9 0 0 188.69 231.53
  L 209.45 231.53
  A 1.10 1.09 -80.1 0 0 210.48 230.80
  L 227.63 182.26
  Q 228.07 181.01 228.50 182.27
  L 245.01 230.90
  Q 245.23 231.54 245.90 231.54
  L 271.70 231.54
  A 1.22 1.21 -80.6 0 0 272.85 230.71
  L 307.67 127.45
  A 0.27 0.27 0.0 0 0 307.41 127.09
  L 273.58 127.09
  Q 272.95 127.09 272.77 127.69
  L 259.58 172.97
  Q 259.23 174.17 258.85 172.98
  L 244.22 127.65
  A 0.81 0.81 0.0 0 0 243.45 127.09
  L 213.30 127.09
  A 1.03 1.03 0.0 0 0 212.31 127.83
  L 199.52 171.75
  A 0.31 0.31 0.0 0 1 198.98 171.86
  Q 198.70 171.53 198.51 170.99
  Q 194.17 158.49 184.56 130.90
  Q 184.33 130.22 184.22 128.45
  Q 184.17 127.58 183.31 127.62
  L 176.98 127.91
  Q 176.12 127.95 176.17 128.81
  Q 176.36 131.61 177.07 133.68
  Q 180.32 143.11 199.28 197.74
  Q 199.81 199.27 200.27 197.71
  L 218.39 135.50
  A 0.61 0.59 -81.4 0 1 218.96 135.07
  L 237.46 135.07
  A 0.89 0.89 0.0 0 1 238.31 135.69
  L 259.40 201.04
  Q 259.58 201.60 259.74 201.03
  L 278.87 135.36
  A 0.43 0.42 8.2 0 1 279.28 135.06
  L 295.80 135.06
  Q 296.64 135.06 296.37 135.85
  L 266.90 223.26
  A 0.48 0.47 9.4 0 1 266.45 223.58
  L 252.21 223.58
  Q 250.98 223.58 250.58 222.41
  L 228.64 157.81
  Q 228.22 156.57 227.78 157.81
  L 204.83 222.77
  A 1.24 1.22 9.7 0 1 203.67 223.58
  L 194.43 223.58
  A 1.10 1.08 -8.7 0 1 193.39 222.83
  L 162.66 127.60
  A 0.75 0.75 0.0 0 0 161.95 127.09
  L 136.37 127.09
  A 1.05 1.04 9.3 0 0 135.38 127.80
  L 101.90 230.60
  Q 101.59 231.55 102.59 231.55
  L 132.04 231.55
  Q 132.75 231.55 132.96 230.86
  L 148.68 179.47
  Q 149.22 177.71 149.76 179.47
  Z
  M 166.64 285.53
  L 166.86 286.02
  Q 167.08 286.54 167.65 286.54
  L 172.73 286.54
  A 0.78 0.77 -83.4 0 0 173.48 285.94
  L 179.92 258.13
  Q 180.08 257.43 179.36 257.43
  L 173.92 257.43
  Q 173.25 257.43 173.09 258.09
  L 171.38 265.48
  A 0.70 0.70 0.0 0 1 170.43 265.97
  Q 163.77 263.26 158.41 267.86
  Q 153.61 271.97 153.35 279.45
  C 153.17 284.86 156.91 288.20 162.36 286.84
  Q 163.41 286.58 165.95 285.28
  Q 166.43 285.03 166.64 285.53
  Z
  M 291.00 285.54
  L 291.22 286.03
  Q 291.44 286.56 292.01 286.56
  L 297.09 286.55
  A 0.78 0.77 -83.4 0 0 297.84 285.95
  L 304.28 258.11
  Q 304.44 257.41 303.72 257.41
  L 298.27 257.41
  Q 297.60 257.41 297.44 258.08
  L 295.74 265.47
  A 0.70 0.70 0.0 0 1 294.78 265.96
  Q 288.12 263.25 282.75 267.86
  Q 277.95 271.98 277.69 279.46
  C 277.51 284.88 281.26 288.22 286.71 286.86
  Q 287.77 286.60 290.31 285.29
  Q 290.79 285.04 291.00 285.54
  Z
  M 97.57 272.95
  Q 97.15 274.75 96.42 273.05
  L 90.39 259.15
  A 0.79 0.77 77.6 0 0 89.68 258.68
  L 82.60 258.68
  Q 82.11 258.68 82.00 259.15
  L 75.79 285.99
  Q 75.66 286.56 76.24 286.56
  L 81.58 286.56
  Q 82.29 286.56 82.45 285.86
  L 86.42 268.73
  A 0.46 0.46 0.0 0 1 87.20 268.52
  Q 87.36 268.69 87.50 269.01
  Q 88.33 270.94 94.54 285.74
  A 1.30 1.29 -11.1 0 0 95.74 286.54
  L 100.21 286.54
  A 1.08 1.08 0.0 0 0 101.26 285.70
  L 107.38 259.29
  A 0.50 0.50 0.0 0 0 106.89 258.68
  L 101.59 258.68
  A 0.90 0.90 0.0 0 0 100.71 259.38
  L 97.57 272.95
  Z
  M 226.99 258.68
  A 0.35 0.35 0.0 0 0 226.67 258.89
  L 218.91 276.40
  A 0.35 0.35 0.0 0 1 218.24 276.28
  L 217.45 259.02
  A 0.35 0.35 0.0 0 0 217.10 258.69
  L 210.43 258.69
  A 0.35 0.35 0.0 0 0 210.11 258.89
  L 201.59 276.47
  A 0.35 0.35 0.0 0 1 200.93 276.32
  L 200.93 259.03
  A 0.35 0.35 0.0 0 0 200.58 258.68
  L 193.73 258.68
  A 0.35 0.35 0.0 0 0 193.38 259.05
  L 194.62 286.33
  A 0.35 0.35 0.0 0 0 194.99 286.66
  L 202.60 286.31
  A 0.35 0.35 0.0 0 0 202.90 286.11
  L 211.20 268.99
  A 0.35 0.35 0.0 0 1 211.86 269.13
  L 212.65 286.36
  A 0.35 0.35 0.0 0 0 213.02 286.69
  L 220.51 286.35
  A 0.35 0.35 0.0 0 0 220.81 286.15
  L 233.89 259.18
  A 0.35 0.35 0.0 0 0 233.57 258.68
  L 226.99 258.68
  Z
  M 310.32 266.18
  Q 312.86 266.63 313.62 263.37
  Q 314.01 261.66 314.02 260.16
  A 0.38 0.38 0.0 0 0 313.41 259.86
  Q 312.95 260.21 312.92 260.90
  Q 312.65 265.73 310.47 265.34
  Q 308.29 264.96 309.70 260.33
  Q 309.90 259.67 309.59 259.18
  A 0.38 0.38 0.0 0 0 308.91 259.26
  Q 308.41 260.67 308.19 262.41
  Q 307.78 265.74 310.32 266.18
  Z
  M 113.23 279.18
  Q 112.42 277.32 114.44 277.31
  L 127.81 277.30
  Q 128.51 277.29 128.77 276.66
  C 130.62 272.08 129.61 266.68 124.11 265.42
  C 116.32 263.62 108.24 267.05 106.74 275.53
  C 104.63 287.55 117.03 288.54 125.03 285.92
  Q 126.41 285.47 126.74 284.05
  L 127.43 281.03
  Q 127.80 279.41 126.37 280.25
  Q 121.39 283.18 116.49 282.11
  A 4.40 4.39 84.2 0 1 113.40 279.58
  L 113.23 279.18
  Z
  M 136.76 279.17
  Q 135.95 277.30 137.98 277.30
  L 151.37 277.30
  Q 152.07 277.30 152.33 276.66
  C 154.19 272.08 153.18 266.67 147.68 265.40
  C 139.88 263.59 131.78 267.01 130.27 275.50
  C 128.14 287.54 140.55 288.55 148.57 285.93
  Q 149.95 285.48 150.28 284.06
  L 150.98 281.04
  Q 151.35 279.42 149.92 280.26
  Q 144.93 283.18 140.02 282.11
  A 4.41 4.40 84.3 0 1 136.93 279.57
  L 136.76 279.17
  Z
  M 237.58 279.22
  Q 236.76 277.36 238.79 277.35
  L 252.15 277.25
  Q 252.85 277.25 253.10 276.61
  C 254.93 272.03 253.88 266.63 248.38 265.40
  C 240.59 263.65 232.53 267.12 231.08 275.60
  C 229.04 287.63 241.43 288.56 249.41 285.89
  Q 250.79 285.43 251.11 284.01
  L 251.79 280.99
  Q 252.14 279.37 250.72 280.22
  Q 245.76 283.17 240.85 282.13
  A 4.40 4.39 83.9 0 1 237.75 279.62
  L 237.58 279.22
  Z
  M 261.09 279.14
  Q 260.29 277.27 262.31 277.28
  L 275.67 277.35
  Q 276.36 277.35 276.63 276.71
  C 278.50 272.16 277.52 266.76 272.04 265.46
  C 264.27 263.62 256.18 266.99 254.63 275.45
  C 252.45 287.45 264.82 288.51 272.83 285.94
  Q 274.21 285.50 274.55 284.08
  L 275.26 281.08
  Q 275.64 279.46 274.21 280.29
  Q 269.22 283.18 264.32 282.09
  A 4.40 4.38 84.6 0 1 261.26 279.54
  L 261.09 279.14
  Z
  M 308.62 270.84
  Q 309.80 270.76 311.27 271.58
  Q 311.56 271.75 311.68 271.42
  L 311.81 271.04
  Q 311.89 270.82 311.70 270.68
  Q 309.96 269.50 307.76 270.13
  A 1.62 1.62 0.0 0 0 307.07 272.84
  C 307.85 273.60 309.25 273.63 310.04 274.51
  Q 310.33 274.84 310.26 275.22
  Q 310.16 275.74 309.62 275.81
  Q 308.01 276.00 306.58 274.85
  Q 306.22 274.56 306.07 274.99
  L 305.94 275.35
  Q 305.85 275.61 306.07 275.77
  Q 307.89 277.15 310.03 276.54
  Q 311.45 276.14 311.47 274.78
  A 1.35 1.34 -80.8 0 0 310.53 273.47
  Q 309.14 273.02 308.21 272.44
  Q 307.65 272.09 307.82 271.49
  A 0.91 0.89 -83.4 0 1 308.62 270.84
  Z
  M 307.20 285.05
  Q 306.99 284.88 306.81 284.91
  A 0.13 0.12 -38.2 0 0 306.78 285.15
  Q 308.33 285.78 308.93 287.34
  Q 309.00 287.51 309.12 287.63
  Q 309.28 287.79 309.52 287.76
  Q 309.83 287.72 309.76 287.42
  L 308.55 281.36
  A 0.94 0.94 0.0 0 0 306.82 281.06
  L 304.19 285.43
  Q 302.60 288.08 305.08 286.10
  Q 305.11 286.08 305.76 285.34
  A 1.73 1.67 -20.3 0 0 306.17 284.49
  Q 306.41 283.21 307.31 282.45
  Q 307.85 282.00 307.97 282.68
  Q 308.25 284.29 307.46 285.04
  Q 307.33 285.17 307.20 285.05
  Z"
/>
<path fill="#ffffff" d="
  M 101.71 91.61
  Q 102.46 91.61 103.06 93.74
  Q 103.95 96.89 103.65 100.33
  Q 103.51 101.91 104.59 100.75
  Q 106.97 98.23 110.61 97.09
  A 0.61 0.60 1.7 0 1 111.36 97.88
  Q 109.89 101.73 106.96 103.97
  Q 105.69 104.95 107.28 105.11
  Q 108.39 105.23 110.39 105.99
  A 0.56 0.55 42.4 0 1 110.44 107.01
  Q 108.22 108.09 105.35 107.66
  A 0.51 0.50 -85.6 0 0 104.77 108.16
  L 104.77 109.36
  Q 104.77 110.26 104.16 109.59
  Q 103.01 108.31 101.64 108.31
  Q 100.26 108.30 99.10 109.57
  Q 98.49 110.23 98.50 109.33
  L 98.51 108.13
  A 0.51 0.50 86.1 0 0 97.93 107.63
  Q 95.06 108.03 92.85 106.93
  A 0.56 0.55 -41.9 0 1 92.90 105.91
  Q 94.91 105.17 96.02 105.06
  Q 97.61 104.91 96.35 103.92
  Q 93.44 101.66 92.01 97.80
  A 0.61 0.60 -1.2 0 1 92.76 97.01
  Q 96.39 98.18 98.75 100.72
  Q 99.82 101.89 99.69 100.31
  Q 99.42 96.87 100.35 93.73
  Q 100.96 91.60 101.71 91.61
  Z"
/>
<ellipse fill="#ffffff" cx="0.00" cy="0.00" transform="translate(101.57,109.92) rotate(79.1)" rx="0.83" ry="0.44"/>
<path fill="#ffffff" d="
  M 149.76 179.47
  Q 149.22 177.71 148.68 179.47
  L 132.96 230.86
  Q 132.75 231.55 132.04 231.55
  L 102.59 231.55
  Q 101.59 231.55 101.90 230.60
  L 135.38 127.80
  A 1.05 1.04 9.3 0 1 136.37 127.09
  L 161.95 127.09
  A 0.75 0.75 0.0 0 1 162.66 127.60
  L 193.39 222.83
  A 1.10 1.08 -8.7 0 0 194.43 223.58
  L 203.67 223.58
  A 1.24 1.22 9.7 0 0 204.83 222.77
  L 227.78 157.81
  Q 228.22 156.57 228.64 157.81
  L 250.58 222.41
  Q 250.98 223.58 252.21 223.58
  L 266.45 223.58
  A 0.48 0.47 9.4 0 0 266.90 223.26
  L 296.37 135.85
  Q 296.64 135.06 295.80 135.06
  L 279.28 135.06
  A 0.43 0.42 8.2 0 0 278.87 135.36
  L 259.74 201.03
  Q 259.58 201.60 259.40 201.04
  L 238.31 135.69
  A 0.89 0.89 0.0 0 0 237.46 135.07
  L 218.96 135.07
  A 0.61 0.59 -81.4 0 0 218.39 135.50
  L 200.27 197.71
  Q 199.81 199.27 199.28 197.74
  Q 180.32 143.11 177.07 133.68
  Q 176.36 131.61 176.17 128.81
  Q 176.12 127.95 176.98 127.91
  L 183.31 127.62
  Q 184.17 127.58 184.22 128.45
  Q 184.33 130.22 184.56 130.90
  Q 194.17 158.49 198.51 170.99
  Q 198.70 171.53 198.98 171.86
  A 0.31 0.31 0.0 0 0 199.52 171.75
  L 212.31 127.83
  A 1.03 1.03 0.0 0 1 213.30 127.09
  L 243.45 127.09
  A 0.81 0.81 0.0 0 1 244.22 127.65
  L 258.85 172.98
  Q 259.23 174.17 259.58 172.97
  L 272.77 127.69
  Q 272.95 127.09 273.58 127.09
  L 307.41 127.09
  A 0.27 0.27 0.0 0 1 307.67 127.45
  L 272.85 230.71
  A 1.22 1.21 -80.6 0 1 271.70 231.54
  L 245.90 231.54
  Q 245.23 231.54 245.01 230.90
  L 228.50 182.27
  Q 228.07 181.01 227.63 182.26
  L 210.48 230.80
  A 1.10 1.09 -80.1 0 1 209.45 231.53
  L 188.69 231.53
  A 1.25 1.23 80.9 0 1 187.51 230.66
  L 156.90 135.79
  A 1.06 1.06 0.0 0 0 155.89 135.06
  L 142.20 135.06
  A 1.05 1.04 8.7 0 0 141.20 135.79
  L 112.87 222.73
  A 0.66 0.66 0.0 0 0 113.50 223.59
  L 126.00 223.59
  A 1.09 1.08 8.2 0 0 127.04 222.82
  L 148.79 151.70
  Q 149.15 150.55 149.50 151.70
  Q 170.00 218.02 171.74 223.31
  Q 172.57 225.86 172.94 229.10
  Q 173.02 229.87 172.25 229.90
  L 165.85 230.20
  Q 165.38 230.22 165.25 229.77
  L 149.76 179.47
  Z"
/>
<path fill="#ffffff" d="
  M 165.95 285.28
  Q 163.41 286.58 162.36 286.84
  C 156.91 288.20 153.17 284.86 153.35 279.45
  Q 153.61 271.97 158.41 267.86
  Q 163.77 263.26 170.43 265.97
  A 0.70 0.70 0.0 0 0 171.38 265.48
  L 173.09 258.09
  Q 173.25 257.43 173.92 257.43
  L 179.36 257.43
  Q 180.08 257.43 179.92 258.13
  L 173.48 285.94
  A 0.78 0.77 -83.4 0 1 172.73 286.54
  L 167.65 286.54
  Q 167.08 286.54 166.86 286.02
  L 166.64 285.53
  Q 166.43 285.03 165.95 285.28
  Z
  M 167.90 280.27
  L 170.04 271.03
  A 0.86 0.86 0.0 0 0 169.29 269.99
  Q 161.52 269.15 160.78 277.04
  Q 160.52 279.87 161.02 280.78
  A 1.68 0.86 73.0 0 0 161.71 281.49
  Q 164.57 282.67 167.41 280.94
  A 1.05 1.05 0.0 0 0 167.90 280.27
  Z"
/>
<path fill="#ffffff" d="
  M 291.00 285.54
  Q 290.79 285.04 290.31 285.29
  Q 287.77 286.60 286.71 286.86
  C 281.26 288.22 277.51 284.88 277.69 279.46
  Q 277.95 271.98 282.75 267.86
  Q 288.12 263.25 294.78 265.96
  A 0.70 0.70 0.0 0 0 295.74 265.47
  L 297.44 258.08
  Q 297.60 257.41 298.27 257.41
  L 303.72 257.41
  Q 304.44 257.41 304.28 258.11
  L 297.84 285.95
  A 0.78 0.77 -83.4 0 1 297.09 286.55
  L 292.01 286.56
  Q 291.44 286.56 291.22 286.03
  L 291.00 285.54
  Z
  M 292.24 280.26
  L 294.40 271.03
  A 0.86 0.86 0.0 0 0 293.66 269.99
  Q 285.89 269.13 285.13 277.02
  Q 284.87 279.84 285.36 280.75
  A 1.68 0.86 73.1 0 0 286.05 281.47
  Q 288.91 282.65 291.75 280.93
  A 1.05 1.04 -8.8 0 0 292.24 280.26
  Z"
/>
<path fill="#ffffff" d="
  M 97.57 272.95
  L 100.71 259.38
  A 0.90 0.90 0.0 0 1 101.59 258.68
  L 106.89 258.68
  A 0.50 0.50 0.0 0 1 107.38 259.29
  L 101.26 285.70
  A 1.08 1.08 0.0 0 1 100.21 286.54
  L 95.74 286.54
  A 1.30 1.29 -11.1 0 1 94.54 285.74
  Q 88.33 270.94 87.50 269.01
  Q 87.36 268.69 87.20 268.52
  A 0.46 0.46 0.0 0 0 86.42 268.73
  L 82.45 285.86
  Q 82.29 286.56 81.58 286.56
  L 76.24 286.56
  Q 75.66 286.56 75.79 285.99
  L 82.00 259.15
  Q 82.11 258.68 82.60 258.68
  L 89.68 258.68
  A 0.79 0.77 77.6 0 1 90.39 259.15
  L 96.42 273.05
  Q 97.15 274.75 97.57 272.95
  Z"
/>
<path fill="#ffffff" d="
  M 226.99 258.68
  L 233.57 258.68
  A 0.35 0.35 0.0 0 1 233.89 259.18
  L 220.81 286.15
  A 0.35 0.35 0.0 0 1 220.51 286.35
  L 213.02 286.69
  A 0.35 0.35 0.0 0 1 212.65 286.36
  L 211.86 269.13
  A 0.35 0.35 0.0 0 0 211.20 268.99
  L 202.90 286.11
  A 0.35 0.35 0.0 0 1 202.60 286.31
  L 194.99 286.66
  A 0.35 0.35 0.0 0 1 194.62 286.33
  L 193.38 259.05
  A 0.35 0.35 0.0 0 1 193.73 258.68
  L 200.58 258.68
  A 0.35 0.35 0.0 0 1 200.93 259.03
  L 200.93 276.32
  A 0.35 0.35 0.0 0 0 201.59 276.47
  L 210.11 258.89
  A 0.35 0.35 0.0 0 1 210.43 258.69
  L 217.10 258.69
  A 0.35 0.35 0.0 0 1 217.45 259.02
  L 218.24 276.28
  A 0.35 0.35 0.0 0 0 218.91 276.40
  L 226.67 258.89
  A 0.35 0.35 0.0 0 1 226.99 258.68
  Z"
/>
<path fill="#ffffff" d="
  M 310.47 265.34
  Q 312.65 265.73 312.92 260.90
  Q 312.95 260.21 313.41 259.86
  A 0.38 0.38 0.0 0 1 314.02 260.16
  Q 314.01 261.66 313.62 263.37
  Q 312.86 266.63 310.32 266.18
  Q 307.78 265.74 308.19 262.41
  Q 308.41 260.67 308.91 259.26
  A 0.38 0.38 0.0 0 1 309.59 259.18
  Q 309.90 259.67 309.70 260.33
  Q 308.29 264.96 310.47 265.34
  Z"
/>
<path fill="#ffffff" d="
  M 113.23 279.18
  L 113.40 279.58
  A 4.40 4.39 84.2 0 0 116.49 282.11
  Q 121.39 283.18 126.37 280.25
  Q 127.80 279.41 127.43 281.03
  L 126.74 284.05
  Q 126.41 285.47 125.03 285.92
  C 117.03 288.54 104.63 287.55 106.74 275.53
  C 108.24 267.05 116.32 263.62 124.11 265.42
  C 129.61 266.68 130.62 272.08 128.77 276.66
  Q 128.51 277.29 127.81 277.30
  L 114.44 277.31
  Q 112.42 277.32 113.23 279.18
  Z
  M 114.51 273.53
  L 123.14 273.26
  A 0.25 0.25 0.0 0 0 123.39 273.01
  L 123.38 272.89
  A 4.13 3.89 -1.8 0 0 119.13 269.13
  L 118.25 269.15
  A 4.13 3.89 -1.8 0 0 114.25 273.17
  L 114.25 273.29
  A 0.25 0.25 0.0 0 0 114.51 273.53
  Z"
/>
<path fill="#ffffff" d="
  M 136.76 279.17
  L 136.93 279.57
  A 4.41 4.40 84.3 0 0 140.02 282.11
  Q 144.93 283.18 149.92 280.26
  Q 151.35 279.42 150.98 281.04
  L 150.28 284.06
  Q 149.95 285.48 148.57 285.93
  C 140.55 288.55 128.14 287.54 130.27 275.50
  C 131.78 267.01 139.88 263.59 147.68 265.40
  C 153.18 266.67 154.19 272.08 152.33 276.66
  Q 152.07 277.30 151.37 277.30
  L 137.98 277.30
  Q 135.95 277.30 136.76 279.17
  Z
  M 137.97 273.44
  L 146.57 273.35
  A 0.23 0.23 0.0 0 0 146.80 273.12
  L 146.80 272.99
  A 4.22 3.90 -0.6 0 0 142.54 269.14
  L 141.92 269.14
  A 4.22 3.90 -0.6 0 0 137.74 273.09
  L 137.74 273.22
  A 0.23 0.23 0.0 0 0 137.97 273.44
  Z"
/>
<path fill="#ffffff" d="
  M 237.58 279.22
  L 237.75 279.62
  A 4.40 4.39 83.9 0 0 240.85 282.13
  Q 245.76 283.17 250.72 280.22
  Q 252.14 279.37 251.79 280.99
  L 251.11 284.01
  Q 250.79 285.43 249.41 285.89
  C 241.43 288.56 229.04 287.63 231.08 275.60
  C 232.53 267.12 240.59 263.65 248.38 265.40
  C 253.88 266.63 254.93 272.03 253.10 276.61
  Q 252.85 277.25 252.15 277.25
  L 238.79 277.35
  Q 236.76 277.36 237.58 279.22
  Z
  M 238.67 273.53
  L 247.59 273.31
  A 0.16 0.16 0.0 0 0 247.75 273.15
  L 247.75 273.10
  A 4.12 4.05 -1.4 0 0 243.53 269.15
  L 242.53 269.17
  A 4.12 4.05 -1.4 0 0 238.51 273.32
  L 238.51 273.37
  A 0.16 0.16 0.0 0 0 238.67 273.53
  Z"
/>
<path fill="#ffffff" d="
  M 261.09 279.14
  L 261.26 279.54
  A 4.40 4.38 84.6 0 0 264.32 282.09
  Q 269.22 283.18 274.21 280.29
  Q 275.64 279.46 275.26 281.08
  L 274.55 284.08
  Q 274.21 285.50 272.83 285.94
  C 264.82 288.51 252.45 287.45 254.63 275.45
  C 256.18 266.99 264.27 263.62 272.04 265.46
  C 277.52 266.76 278.50 272.16 276.63 276.71
  Q 276.36 277.35 275.67 277.35
  L 262.31 277.28
  Q 260.29 277.27 261.09 279.14
  Z
  M 262.34 273.40
  L 270.92 273.30
  A 0.22 0.22 0.0 0 0 271.13 273.07
  L 271.13 272.94
  A 4.37 3.85 -0.7 0 0 266.71 269.15
  L 266.43 269.15
  A 4.37 3.85 -0.7 0 0 262.11 273.05
  L 262.11 273.18
  A 0.22 0.22 0.0 0 0 262.34 273.40
  Z"
/>
<path fill="#38b372" d="
  M 114.51 273.53
  A 0.25 0.25 0.0 0 1 114.25 273.29
  L 114.25 273.17
  A 4.13 3.89 -1.8 0 1 118.25 269.15
  L 119.13 269.13
  A 4.13 3.89 -1.8 0 1 123.38 272.89
  L 123.39 273.01
  A 0.25 0.25 0.0 0 1 123.14 273.26
  L 114.51 273.53
  Z"
/>
<path fill="#38b372" d="
  M 137.97 273.44
  A 0.23 0.23 0.0 0 1 137.74 273.22
  L 137.74 273.09
  A 4.22 3.90 -0.6 0 1 141.92 269.14
  L 142.54 269.14
  A 4.22 3.90 -0.6 0 1 146.80 272.99
  L 146.80 273.12
  A 0.23 0.23 0.0 0 1 146.57 273.35
  L 137.97 273.44
  Z"
/>
<path fill="#38b372" d="
  M 238.67 273.53
  A 0.16 0.16 0.0 0 1 238.51 273.37
  L 238.51 273.32
  A 4.12 4.05 -1.4 0 1 242.53 269.17
  L 243.53 269.15
  A 4.12 4.05 -1.4 0 1 247.75 273.10
  L 247.75 273.15
  A 0.16 0.16 0.0 0 1 247.59 273.31
  L 238.67 273.53
  Z"
/>
<path fill="#38b372" d="
  M 262.34 273.40
  A 0.22 0.22 0.0 0 1 262.11 273.18
  L 262.11 273.05
  A 4.37 3.85 -0.7 0 1 266.43 269.15
  L 266.71 269.15
  A 4.37 3.85 -0.7 0 1 271.13 272.94
  L 271.13 273.07
  A 0.22 0.22 0.0 0 1 270.92 273.30
  L 262.34 273.40
  Z"
/>
<path fill="#38b372" d="
  M 170.04 271.03
  L 167.90 280.27
  A 1.05 1.05 0.0 0 1 167.41 280.94
  Q 164.57 282.67 161.71 281.49
  A 1.68 0.86 73.0 0 1 161.02 280.78
  Q 160.52 279.87 160.78 277.04
  Q 161.52 269.15 169.29 269.99
  A 0.86 0.86 0.0 0 1 170.04 271.03
  Z"
/>
<path fill="#ffffff" d="
  M 308.62 270.84
  A 0.91 0.89 -83.4 0 0 307.82 271.49
  Q 307.65 272.09 308.21 272.44
  Q 309.14 273.02 310.53 273.47
  A 1.35 1.34 -80.8 0 1 311.47 274.78
  Q 311.45 276.14 310.03 276.54
  Q 307.89 277.15 306.07 275.77
  Q 305.85 275.61 305.94 275.35
  L 306.07 274.99
  Q 306.22 274.56 306.58 274.85
  Q 308.01 276.00 309.62 275.81
  Q 310.16 275.74 310.26 275.22
  Q 310.33 274.84 310.04 274.51
  C 309.25 273.63 307.85 273.60 307.07 272.84
  A 1.62 1.62 0.0 0 1 307.76 270.13
  Q 309.96 269.50 311.70 270.68
  Q 311.89 270.82 311.81 271.04
  L 311.68 271.42
  Q 311.56 271.75 311.27 271.58
  Q 309.80 270.76 308.62 270.84
  Z"
/>
<path fill="#38b372" d="
  M 292.24 280.26
  A 1.05 1.04 -8.8 0 1 291.75 280.93
  Q 288.91 282.65 286.05 281.47
  A 1.68 0.86 73.1 0 1 285.36 280.75
  Q 284.87 279.84 285.13 277.02
  Q 285.89 269.13 293.66 269.99
  A 0.86 0.86 0.0 0 1 294.40 271.03
  L 292.24 280.26
  Z"
/>
<path fill="#ffffff" d="
  M 307.46 285.04
  Q 308.25 284.29 307.97 282.68
  Q 307.85 282.00 307.31 282.45
  Q 306.41 283.21 306.17 284.49
  A 1.73 1.67 -20.3 0 1 305.76 285.34
  Q 305.11 286.08 305.08 286.10
  Q 302.60 288.08 304.19 285.43
  L 306.82 281.06
  A 0.94 0.94 0.0 0 1 308.55 281.36
  L 309.76 287.42
  Q 309.83 287.72 309.52 287.76
  Q 309.28 287.79 309.12 287.63
  Q 309.00 287.51 308.93 287.34
  Q 308.33 285.78 306.78 285.15
  A 0.13 0.12 -38.2 0 1 306.81 284.91
  Q 306.99 284.88 307.20 285.05
  Q 307.33 285.17 307.46 285.04
  Z"
/>
</svg>
